<svg width="955" height="802" viewBox="0 0 955 802" fill="none" xmlns="http://www.w3.org/2000/svg">
<path fill-rule="evenodd" clip-rule="evenodd" d="M367.849 263.042L263.085 367.806L263.015 367.876L242.326 347.187L177.508 282.212C148.677 253.311 148.699 206.504 177.575 177.628C206.452 148.751 253.259 148.729 282.16 177.56L367.849 263.042ZM477.623 153.268L391.905 67.5496L391.635 67.8201L391.629 67.8263C302.182 -21.4036 157.337 -21.337 67.9739 68.0264C-21.3894 157.39 -21.4561 302.235 67.7739 391.681L67.6953 391.76L253.823 577.888L253.893 577.817L263.085 587.009L263.087 587.011L372.689 477.409L372.687 477.407L607.529 242.565L672.79 177.462C701.691 148.63 748.498 148.653 777.374 177.529C806.251 206.406 806.273 253.212 777.441 282.113L668.105 391.715L668.249 391.859L477.693 582.414L477.693 582.413L368.091 692.015L368.092 692.016L377.284 701.208L377.214 701.278L473.653 797.717L473.723 797.647L477.693 801.617L587.295 692.016L777.85 501.46L887.452 391.859L887.188 391.595L887.175 391.582C976.406 302.136 976.339 157.291 886.976 67.9275C797.612 -21.436 652.767 -21.5026 563.321 67.7277L563.242 67.6489L563.084 67.8063L477.623 153.268Z" fill="url(#paint0_radial_13_30)"/>
<defs>
<radialGradient id="paint0_radial_13_30" cx="0" cy="0" r="1" gradientUnits="userSpaceOnUse" gradientTransform="translate(477 -107) rotate(90) scale(970 970.223)">
<stop offset="0.0917786" stop-color="#FFB422"/>
<stop offset="0.948367" stop-color="#FF7253"/>
</radialGradient>
</defs>
</svg>
