<svg width="113" height="41" viewBox="0 0 113 41" fill="none" xmlns="http://www.w3.org/2000/svg">
<rect x="8" width="97" height="41" rx="13" fill="#525252"/>
<circle cx="20.5" cy="20.5" r="20.5" fill="#525252"/>
<circle cx="92.5" cy="20.5" r="20.5" fill="#1E204C"/>
<path fill-rule="evenodd" clip-rule="evenodd" d="M80.3329 37.0005C80.1151 35.8756 80 34.7038 80 33.5C80 24.9396 85.8203 18 93 18C100.18 18 106 24.9396 106 33.5C106 34.3801 105.938 35.2431 105.82 36.0832C102.237 39.1486 97.5849 41 92.5 41C87.9445 41 83.736 39.5141 80.3329 37.0005Z" fill="url(#paint0_linear_181_177)"/>
<circle cx="93" cy="11" r="6" fill="url(#paint1_linear_181_177)"/>
<path d="M24.568 16.712C24.488 16.84 24.4027 16.936 24.312 17C24.2267 17.064 24.1147 17.096 23.976 17.096C23.8533 17.096 23.72 17.0587 23.576 16.984C23.4373 16.904 23.2773 16.816 23.096 16.72C22.92 16.624 22.7173 16.5387 22.488 16.464C22.2587 16.384 21.9973 16.344 21.704 16.344C21.1973 16.344 20.8187 16.4533 20.568 16.672C20.3227 16.8853 20.2 17.176 20.2 17.544C20.2 17.7787 20.2747 17.9733 20.424 18.128C20.5733 18.2827 20.768 18.416 21.008 18.528C21.2533 18.64 21.5307 18.744 21.84 18.84C22.1547 18.9307 22.4747 19.0347 22.8 19.152C23.1253 19.264 23.4427 19.3973 23.752 19.552C24.0667 19.7067 24.344 19.904 24.584 20.144C24.8293 20.384 25.0267 20.6773 25.176 21.024C25.3253 21.3653 25.4 21.7787 25.4 22.264C25.4 22.8027 25.3067 23.3067 25.12 23.776C24.9333 24.2453 24.6613 24.656 24.304 25.008C23.952 25.3547 23.5147 25.6293 22.992 25.832C22.4747 26.0293 21.8853 26.128 21.224 26.128C20.8613 26.128 20.4907 26.0907 20.112 26.016C19.7387 25.9413 19.376 25.8373 19.024 25.704C18.672 25.5653 18.3413 25.4027 18.032 25.216C17.7227 25.0293 17.4533 24.8213 17.224 24.592L18.024 23.328C18.088 23.2373 18.1707 23.1627 18.272 23.104C18.3787 23.04 18.4933 23.008 18.616 23.008C18.776 23.008 18.936 23.0587 19.096 23.16C19.2613 23.2613 19.4453 23.3733 19.648 23.496C19.856 23.6187 20.0933 23.7307 20.36 23.832C20.6267 23.9333 20.9413 23.984 21.304 23.984C21.7947 23.984 22.176 23.8773 22.448 23.664C22.72 23.4453 22.856 23.1013 22.856 22.632C22.856 22.36 22.7813 22.1387 22.632 21.968C22.4827 21.7973 22.2853 21.656 22.04 21.544C21.8 21.432 21.5253 21.3333 21.216 21.248C20.9067 21.1627 20.5893 21.0693 20.264 20.968C19.9387 20.8613 19.6213 20.7333 19.312 20.584C19.0027 20.4293 18.7253 20.2293 18.48 19.984C18.24 19.7333 18.0453 19.424 17.896 19.056C17.7467 18.6827 17.672 18.224 17.672 17.68C17.672 17.2427 17.76 16.816 17.936 16.4C18.112 15.984 18.3707 15.6133 18.712 15.288C19.0533 14.9627 19.472 14.704 19.968 14.512C20.464 14.3147 21.032 14.216 21.672 14.216C22.0293 14.216 22.376 14.2453 22.712 14.304C23.0533 14.3573 23.376 14.44 23.68 14.552C23.984 14.6587 24.2667 14.7893 24.528 14.944C24.7947 15.0933 25.032 15.264 25.24 15.456L24.568 16.712ZM29.2354 17.704V26H26.7554V17.704H29.2354ZM29.4914 15.432C29.4914 15.6293 29.4514 15.816 29.3714 15.992C29.2914 16.1627 29.182 16.3147 29.0434 16.448C28.9047 16.576 28.742 16.68 28.5554 16.76C28.374 16.8347 28.1794 16.872 27.9714 16.872C27.7687 16.872 27.5794 16.8347 27.4034 16.76C27.2274 16.68 27.07 16.576 26.9314 16.448C26.798 16.3147 26.6914 16.1627 26.6114 15.992C26.5367 15.816 26.4994 15.6293 26.4994 15.432C26.4994 15.2293 26.5367 15.04 26.6114 14.864C26.6914 14.688 26.798 14.5333 26.9314 14.4C27.07 14.2667 27.2274 14.1627 27.4034 14.088C27.5794 14.0133 27.7687 13.976 27.9714 13.976C28.1794 13.976 28.374 14.0133 28.5554 14.088C28.742 14.1627 28.9047 14.2667 29.0434 14.4C29.182 14.5333 29.2914 14.688 29.3714 14.864C29.4514 15.04 29.4914 15.2293 29.4914 15.432ZM34.125 21.416C34.5357 21.416 34.8317 21.3147 35.013 21.112C35.1997 20.904 35.293 20.6373 35.293 20.312C35.293 19.976 35.1997 19.712 35.013 19.52C34.8317 19.328 34.5357 19.232 34.125 19.232C33.7143 19.232 33.4157 19.328 33.229 19.52C33.0477 19.712 32.957 19.976 32.957 20.312C32.957 20.472 32.9783 20.6187 33.021 20.752C33.069 20.8853 33.141 21.0027 33.237 21.104C33.333 21.2 33.453 21.2773 33.597 21.336C33.7463 21.3893 33.9223 21.416 34.125 21.416ZM36.045 26.304C36.045 26.1067 35.957 25.9653 35.781 25.88C35.605 25.7893 35.3757 25.7253 35.093 25.688C34.8103 25.6507 34.493 25.6293 34.141 25.624C33.7943 25.6133 33.4477 25.592 33.101 25.56C32.9463 25.6667 32.8183 25.7867 32.717 25.92C32.621 26.048 32.573 26.1947 32.573 26.36C32.573 26.4773 32.597 26.584 32.645 26.68C32.6983 26.776 32.789 26.8587 32.917 26.928C33.045 26.9973 33.2157 27.0507 33.429 27.088C33.6477 27.1307 33.9223 27.152 34.253 27.152C34.6103 27.152 34.9037 27.1307 35.133 27.088C35.3623 27.0453 35.5437 26.9867 35.677 26.912C35.8157 26.8373 35.9117 26.7467 35.965 26.64C36.0183 26.5387 36.045 26.4267 36.045 26.304ZM38.493 17.96V18.864C38.493 19.0027 38.453 19.112 38.373 19.192C38.2983 19.272 38.1677 19.3333 37.981 19.376L37.381 19.512C37.413 19.6293 37.437 19.7493 37.453 19.872C37.4743 19.9947 37.485 20.1227 37.485 20.256C37.485 20.672 37.397 21.0453 37.221 21.376C37.0503 21.7067 36.813 21.9893 36.509 22.224C36.2103 22.4533 35.8557 22.632 35.445 22.76C35.0343 22.8827 34.5943 22.944 34.125 22.944C33.997 22.944 33.8717 22.9413 33.749 22.936C33.6263 22.9253 33.5063 22.9093 33.389 22.888C33.2077 23 33.117 23.1253 33.117 23.264C33.117 23.4027 33.1917 23.504 33.341 23.568C33.4903 23.6267 33.6877 23.6693 33.933 23.696C34.1783 23.7173 34.4557 23.7333 34.765 23.744C35.0797 23.7493 35.3997 23.768 35.725 23.8C36.0503 23.8267 36.3677 23.8747 36.677 23.944C36.9917 24.0133 37.2717 24.1253 37.517 24.28C37.7623 24.4347 37.9597 24.6427 38.109 24.904C38.2583 25.16 38.333 25.488 38.333 25.888C38.333 26.2613 38.2423 26.6267 38.061 26.984C37.8797 27.3413 37.613 27.6587 37.261 27.936C36.909 28.2133 36.477 28.4347 35.965 28.6C35.453 28.7707 34.8663 28.856 34.205 28.856C33.5543 28.856 32.9917 28.7947 32.517 28.672C32.0477 28.5493 31.6557 28.3867 31.341 28.184C31.0317 27.9867 30.8023 27.7573 30.653 27.496C30.5037 27.2347 30.429 26.9627 30.429 26.68C30.429 26.312 30.5357 26.0053 30.749 25.76C30.9623 25.5147 31.261 25.3173 31.645 25.168C31.4423 25.0453 31.2823 24.888 31.165 24.696C31.0477 24.504 30.989 24.256 30.989 23.952C30.989 23.8293 31.0103 23.7013 31.053 23.568C31.0957 23.4293 31.1623 23.296 31.253 23.168C31.349 23.0347 31.4663 22.9093 31.605 22.792C31.7437 22.6747 31.909 22.5707 32.101 22.48C31.669 22.2507 31.3277 21.9493 31.077 21.576C30.8263 21.1973 30.701 20.7573 30.701 20.256C30.701 19.84 30.789 19.4667 30.965 19.136C31.141 18.8 31.381 18.5173 31.685 18.288C31.9943 18.0533 32.357 17.8747 32.773 17.752C33.189 17.624 33.6397 17.56 34.125 17.56C34.829 17.56 35.453 17.6933 35.997 17.96H38.493ZM41.8155 18.6C41.9755 18.4507 42.1408 18.312 42.3115 18.184C42.4822 18.056 42.6635 17.9493 42.8555 17.864C43.0528 17.7733 43.2635 17.704 43.4875 17.656C43.7168 17.6027 43.9648 17.576 44.2315 17.576C44.6848 17.576 45.0848 17.656 45.4315 17.816C45.7835 17.9707 46.0795 18.1893 46.3195 18.472C46.5595 18.7493 46.7408 19.0827 46.8635 19.472C46.9862 19.856 47.0475 20.2747 47.0475 20.728V26H44.5675V20.728C44.5675 20.3227 44.4742 20.008 44.2875 19.784C44.1008 19.5547 43.8262 19.44 43.4635 19.44C43.1915 19.44 42.9355 19.4987 42.6955 19.616C42.4608 19.728 42.2315 19.8827 42.0075 20.08V26H39.5275V17.704H41.0635C41.3728 17.704 41.5755 17.8427 41.6715 18.12L41.8155 18.6ZM54.8916 17.704V26H52.4116V17.704H54.8916ZM55.1476 15.432C55.1476 15.6293 55.1076 15.816 55.0276 15.992C54.9476 16.1627 54.8383 16.3147 54.6996 16.448C54.561 16.576 54.3983 16.68 54.2116 16.76C54.0303 16.8347 53.8356 16.872 53.6276 16.872C53.425 16.872 53.2356 16.8347 53.0596 16.76C52.8836 16.68 52.7263 16.576 52.5876 16.448C52.4543 16.3147 52.3476 16.1627 52.2676 15.992C52.193 15.816 52.1556 15.6293 52.1556 15.432C52.1556 15.2293 52.193 15.04 52.2676 14.864C52.3476 14.688 52.4543 14.5333 52.5876 14.4C52.7263 14.2667 52.8836 14.1627 53.0596 14.088C53.2356 14.0133 53.425 13.976 53.6276 13.976C53.8356 13.976 54.0303 14.0133 54.2116 14.088C54.3983 14.1627 54.561 14.2667 54.6996 14.4C54.8383 14.5333 54.9476 14.688 55.0276 14.864C55.1076 15.04 55.1476 15.2293 55.1476 15.432ZM58.9093 18.6C59.0693 18.4507 59.2346 18.312 59.4053 18.184C59.5759 18.056 59.7573 17.9493 59.9493 17.864C60.1466 17.7733 60.3573 17.704 60.5813 17.656C60.8106 17.6027 61.0586 17.576 61.3253 17.576C61.7786 17.576 62.1786 17.656 62.5253 17.816C62.8773 17.9707 63.1733 18.1893 63.4133 18.472C63.6533 18.7493 63.8346 19.0827 63.9573 19.472C64.0799 19.856 64.1413 20.2747 64.1413 20.728V26H61.6613V20.728C61.6613 20.3227 61.5679 20.008 61.3813 19.784C61.1946 19.5547 60.9199 19.44 60.5573 19.44C60.2853 19.44 60.0293 19.4987 59.7893 19.616C59.5546 19.728 59.3253 19.8827 59.1013 20.08V26H56.6213V17.704H58.1573C58.4666 17.704 58.6693 17.8427 58.7653 18.12L58.9093 18.6Z" fill="white"/>
<defs>
<linearGradient id="paint0_linear_181_177" x1="66.8465" y1="28.2999" x2="100.495" y2="46.853" gradientUnits="userSpaceOnUse">
<stop stop-color="#FDA085"/>
<stop offset="1" stop-color="#F6D365"/>
</linearGradient>
<linearGradient id="paint1_linear_181_177" x1="80.9292" y1="10.3739" x2="97.2887" y2="18.3533" gradientUnits="userSpaceOnUse">
<stop stop-color="#FDA085"/>
<stop offset="1" stop-color="#F6D365"/>
</linearGradient>
</defs>
</svg>
